<?xml version="1.0" encoding="utf-8"?>
<!-- Generator: Adobe Illustrator 26.2.1, SVG Export Plug-In . SVG Version: 6.00 Build 0)  -->
<svg version="1.1" id="Layer_1" xmlns="http://www.w3.org/2000/svg" xmlns:xlink="http://www.w3.org/1999/xlink" x="0px" y="0px"
	 viewBox="0 0 841.8898315 595.2755737" style="enable-background:new 0 0 841.8898315 595.2755737;" xml:space="preserve">
<style type="text/css">
	.st0{fill:#02078E;}
	.st1{fill:#FFFFFF;}
</style>
<g>
	<g>
		<path class="st0" d="M321.1087036,170.7178955h108.8556519c12.3321838,0,22.3293762,9.9971924,22.3293762,22.329361v242.8318634
			c0,12.3321533-9.9971924,22.3293457-22.3293762,22.3293457H321.1087036c-12.3321533,0-22.3293762-9.9971924-22.3293762-22.3293457
			V193.0472565C298.7793274,180.7150879,308.7765503,170.7178955,321.1087036,170.7178955z"/>
	</g>
	<ellipse class="st0" cx="427.8511658" cy="314.4631958" rx="117.3117905" ry="143.745285"/>
</g>
<g>
	<g>
		<path class="st1" d="M331.241394,158.7327881h108.8556824c12.3321533,0,22.3293457,9.9972076,22.3293457,22.3293762v242.8318481
			c0,12.3321838-9.9971924,22.3293762-22.3293457,22.3293762H331.241394c-12.3321533,0-22.3293457-9.9971924-22.3293457-22.3293762
			V181.0621643C308.9120483,168.7299957,318.9092407,158.7327881,331.241394,158.7327881z"/>
	</g>
	<ellipse class="st1" cx="437.9838867" cy="302.4780884" rx="117.3117905" ry="143.745285"/>
</g>
<ellipse class="st0" cx="449.9091797" cy="292.0120239" rx="117.3117905" ry="143.745285"/>
<path class="st0" d="M343.1667175,148.2667236h108.8556519c12.3321838,0,22.3293457,9.9971924,22.3293457,22.329361V413.427948
	c0,12.3321533-9.9971619,22.3293457-22.3293457,22.3293457H343.1667175c-12.3321838,0-22.3293762-9.9971924-22.3293762-22.3293457
	V170.5960846C320.8373413,158.263916,330.8345337,148.2667236,343.1667175,148.2667236z"/>
<path class="st1" d="M530.1751709,268.2870483L530.1751709,268.2870483c8.3148193,0,15.0553589,6.7405396,15.0553589,15.0554199l0,0
	c0,8.3148804-6.7405396,15.0554199-15.0553589,15.0554199l0,0c-8.3148804,0-15.0554199-6.7405396-15.0554199-15.0554199l0,0
	C515.119751,275.0275879,521.8602905,268.2870483,530.1751709,268.2870483z"/>
</svg>
